<svg width="9" height="6" viewBox="0 0 9 6" fill="none" xmlns="http://www.w3.org/2000/svg">
<path fill-rule="evenodd" clip-rule="evenodd" d="M0.287339 1.82425C0.0967184 1.64662 0.0182522 1.37912 0.0827226 1.12667C0.147193 0.874225 0.344318 0.6771 0.596764 0.61263C0.849211 0.548159 1.11672 0.626626 1.29434 0.817246L4.15004 3.672L7.00479 0.817246C7.18241 0.626626 7.44992 0.548159 7.70236 0.61263C7.95481 0.6771 8.15193 0.874225 8.2164 1.12667C8.28087 1.37912 8.20241 1.64662 8.01179 1.82425L4.64024 5.19675C4.48627 5.35061 4.27041 5.42565 4.05419 5.40048C3.83798 5.3753 3.64514 5.25267 3.53064 5.06755L0.287339 1.82425Z" fill="#333333"/>
</svg>
