<svg width="44" height="44" viewBox="0 0 44 44" fill="none" xmlns="http://www.w3.org/2000/svg">
<path d="M34.8333 5.5H9.16667C7.14162 5.5 5.5 7.14162 5.5 9.16667V34.8333C5.5 36.8584 7.14162 38.5 9.16667 38.5H34.8333C36.8584 38.5 38.5 36.8584 38.5 34.8333V9.16667C38.5 7.14162 36.8584 5.5 34.8333 5.5Z" stroke="#C4C4C4" stroke-width="2" stroke-linecap="round" stroke-linejoin="round"/>
<path d="M15.5841 18.3333C17.1029 18.3333 18.3341 17.102 18.3341 15.5833C18.3341 14.0645 17.1029 12.8333 15.5841 12.8333C14.0653 12.8333 12.8341 14.0645 12.8341 15.5833C12.8341 17.102 14.0653 18.3333 15.5841 18.3333Z" stroke="#C4C4C4" stroke-width="2" stroke-linecap="round" stroke-linejoin="round"/>
<path d="M38.4992 27.4999L29.3326 18.3333L9.16589 38.4999" stroke="#C4C4C4" stroke-width="2" stroke-linecap="round" stroke-linejoin="round"/>
</svg>
