<svg width="15" height="15" viewBox="0 0 15 15" fill="none" xmlns="http://www.w3.org/2000/svg">
<path d="M7.50019 0.214294C11.5237 0.214294 14.7859 3.47647 14.7859 7.50001C14.7859 11.5235 11.5237 14.7857 7.50019 14.7857C3.47666 14.7857 0.214478 11.5235 0.214478 7.50001C0.214478 3.47647 3.47666 0.214294 7.50019 0.214294ZM7.50019 1.12501C3.97937 1.12501 1.12519 3.97919 1.12519 7.50001C1.12519 11.0208 3.97937 13.875 7.50019 13.875C11.021 13.875 13.8752 11.0208 13.8752 7.50001C13.8752 3.97919 11.021 1.12501 7.50019 1.12501ZM7.50019 3.85715C7.62096 3.85715 7.73678 3.90513 7.82218 3.99052C7.90757 4.07592 7.95555 4.19174 7.95555 4.31251V7.04465H10.6877C10.8085 7.04465 10.9243 7.09263 11.0097 7.17802C11.0951 7.26342 11.143 7.37924 11.143 7.50001C11.143 7.62078 11.0951 7.7366 11.0097 7.822C10.9243 7.90739 10.8085 7.95537 10.6877 7.95537H7.95555V10.6875C7.95555 10.8083 7.90757 10.9241 7.82218 11.0095C7.73678 11.0949 7.62096 11.1429 7.50019 11.1429C7.37942 11.1429 7.2636 11.0949 7.17821 11.0095C7.09281 10.9241 7.04483 10.8083 7.04483 10.6875V7.95537H4.31269C4.19192 7.95537 4.0761 7.90739 3.99071 7.822C3.90531 7.7366 3.85733 7.62078 3.85733 7.50001C3.85733 7.37924 3.90531 7.26342 3.99071 7.17802C4.0761 7.09263 4.19192 7.04465 4.31269 7.04465H7.04483V4.31251C7.04483 4.19174 7.09281 4.07592 7.17821 3.99052C7.2636 3.90513 7.37942 3.85715 7.50019 3.85715Z" fill="#549CFF"/>
</svg>
