<svg width="24" height="24" viewBox="0 0 24 24" fill="none" xmlns="http://www.w3.org/2000/svg">
<path d="M5.83978 2.28369L2.91989 6.17688V19.803C2.91989 20.3193 3.12498 20.8144 3.49004 21.1795C3.85509 21.5445 4.35022 21.7496 4.86648 21.7496H18.4926C19.0089 21.7496 19.504 21.5445 19.8691 21.1795C20.2341 20.8144 20.4392 20.3193 20.4392 19.803V6.17688L17.5193 2.28369H5.83978Z" stroke="white" stroke-width="2" stroke-linecap="round" stroke-linejoin="round"/>
<path d="M2.91989 6.17676H20.4392" stroke="white" stroke-width="2" stroke-linecap="round" stroke-linejoin="round"/>
<path d="M15.5728 10.0699C15.5728 11.1025 15.1626 12.0927 14.4325 12.8228C13.7024 13.553 12.7121 13.9631 11.6796 13.9631C10.6471 13.9631 9.65682 13.553 8.92671 12.8228C8.1966 12.0927 7.78642 11.1025 7.78642 10.0699" stroke="white" stroke-width="2" stroke-linecap="round" stroke-linejoin="round"/>
</svg>
