<svg width="18" height="18" viewBox="0 0 18 18" fill="none" xmlns="http://www.w3.org/2000/svg">
<path d="M5.25 6H12.75H5.25ZM5.25 9H8.25H5.25ZM9 15L6 12H3.75C3.35218 12 2.97064 11.842 2.68934 11.5607C2.40804 11.2794 2.25 10.8978 2.25 10.5V4.5C2.25 4.10218 2.40804 3.72064 2.68934 3.43934C2.97064 3.15804 3.35218 3 3.75 3H14.25C14.6478 3 15.0294 3.15804 15.3107 3.43934C15.592 3.72064 15.75 4.10218 15.75 4.5V10.5C15.75 10.8978 15.592 11.2794 15.3107 11.5607C15.0294 11.842 14.6478 12 14.25 12H12L9 15Z" stroke="black" stroke-width="2" stroke-linecap="round" stroke-linejoin="round"/>
</svg>
