<svg width="20" height="20" viewBox="0 0 20 20" fill="none" xmlns="http://www.w3.org/2000/svg">
<path d="M10.0003 8.33333V13.3333V8.33333ZM10.0003 13.3333L7.50033 10.8333L10.0003 13.3333ZM10.0003 13.3333L12.5003 10.8333L10.0003 13.3333ZM14.167 17.5H5.83366C5.39163 17.5 4.96771 17.3244 4.65515 17.0118C4.34259 16.6993 4.16699 16.2754 4.16699 15.8333V4.16667C4.16699 3.72464 4.34259 3.30072 4.65515 2.98816C4.96771 2.67559 5.39163 2.5 5.83366 2.5H10.4887C10.7097 2.50005 10.9216 2.58788 11.0778 2.74417L15.5895 7.25583C15.7458 7.41208 15.8336 7.624 15.8337 7.845V15.8333C15.8337 16.2754 15.6581 16.6993 15.3455 17.0118C15.0329 17.3244 14.609 17.5 14.167 17.5Z" stroke="black" stroke-width="2" stroke-linecap="round" stroke-linejoin="round"/>
</svg>
