<svg width="19" height="19" viewBox="0 0 19 19" fill="none" xmlns="http://www.w3.org/2000/svg">
<path d="M8.3841 12.1996C9.0016 12.8171 10.007 12.8171 10.6245 12.1996C11.0441 11.78 12.9283 8.85877 14.0999 7.03002C14.3295 6.67377 13.9099 6.25418 13.5537 6.48377C11.7249 7.65543 8.80369 9.5396 8.3841 9.95918C7.75868 10.5846 7.75868 11.5821 8.3841 12.1996Z" fill="black"/>
<path d="M15.4055 7.92453C15.4055 7.93244 15.3976 7.94036 15.3976 7.94036C15.2551 8.16202 15.2472 8.43911 15.3422 8.67661C15.7212 9.56841 15.885 10.5369 15.8203 11.5037C15.7557 12.4706 15.4644 13.4086 14.9701 14.242L4.02926 14.2658C3.46587 13.2997 3.16816 12.2017 3.16634 11.0833C3.16634 7.59203 6.00843 4.74994 9.49968 4.74994H9.68176C10.4655 4.77369 11.2097 4.94786 11.9063 5.23286C12.1518 5.33577 12.4288 5.31994 12.6505 5.17744C12.6584 5.17744 12.6584 5.16952 12.6663 5.16952C13.1968 4.82911 13.1255 4.03744 12.5476 3.78411C11.6768 3.41202 10.7268 3.19036 9.72926 3.15869C9.65009 3.16661 9.57093 3.16661 9.49968 3.16661C5.12967 3.16661 1.58301 6.71327 1.58301 11.0833C1.58301 12.5399 1.97884 13.9016 2.66759 15.0654C2.95259 15.5483 3.47509 15.8333 4.02926 15.8333H14.9701C15.5243 15.8333 16.0468 15.5483 16.3318 15.0654C17.0604 13.8286 17.4356 12.4156 17.4163 10.9804C17.3999 9.97264 17.1875 8.97775 16.7909 8.05119C16.5455 7.46536 15.7459 7.39411 15.4055 7.92453Z" fill="black"/>
</svg>
