<svg width="18" height="18" viewBox="0 0 18 18" fill="none" xmlns="http://www.w3.org/2000/svg">
<path d="M3.84075 13.353C5.41456 12.4634 7.19218 11.9973 9 12C10.875 12 12.6353 12.4913 14.1593 13.353M11.25 7.5C11.25 8.09674 11.0129 8.66903 10.591 9.09099C10.169 9.51295 9.59674 9.75 9 9.75C8.40326 9.75 7.83097 9.51295 7.40901 9.09099C6.98705 8.66903 6.75 8.09674 6.75 7.5C6.75 6.90326 6.98705 6.33097 7.40901 5.90901C7.83097 5.48705 8.40326 5.25 9 5.25C9.59674 5.25 10.169 5.48705 10.591 5.90901C11.0129 6.33097 11.25 6.90326 11.25 7.5ZM15.75 9C15.75 9.88642 15.5754 10.7642 15.2362 11.5831C14.897 12.4021 14.3998 13.1462 13.773 13.773C13.1462 14.3998 12.4021 14.897 11.5831 15.2362C10.7642 15.5754 9.88642 15.75 9 15.75C8.11358 15.75 7.23583 15.5754 6.41689 15.2362C5.59794 14.897 4.85382 14.3998 4.22703 13.773C3.60023 13.1462 3.10303 12.4021 2.76381 11.5831C2.42459 10.7642 2.25 9.88642 2.25 9C2.25 7.20979 2.96116 5.4929 4.22703 4.22703C5.4929 2.96116 7.20979 2.25 9 2.25C10.7902 2.25 12.5071 2.96116 13.773 4.22703C15.0388 5.4929 15.75 7.20979 15.75 9Z" stroke="black" stroke-width="2" stroke-linecap="round" stroke-linejoin="round"/>
</svg>
