<svg width="34" height="42" viewBox="0 0 34 42" fill="none" xmlns="http://www.w3.org/2000/svg">
<path d="M32.8959 3.60424C32.6538 3.40845 32.371 3.26939 32.0681 3.19729C31.7653 3.12518 31.4502 3.12186 31.1459 3.18757C28.9197 3.65412 26.6216 3.66007 24.393 3.20504C22.1645 2.75001 20.0526 1.84364 18.1875 0.54174C17.8388 0.299808 17.4245 0.170166 17 0.170166C16.5756 0.170166 16.1613 0.299808 15.8125 0.54174C13.9474 1.84364 11.8356 2.75001 9.60704 3.20504C7.37848 3.66007 5.08036 3.65412 2.85419 3.18757C2.54989 3.12186 2.23474 3.12518 1.9319 3.19729C1.62906 3.26939 1.34622 3.40845 1.10419 3.60424C0.862479 3.80032 0.667774 4.04807 0.534381 4.32927C0.400988 4.61048 0.332297 4.918 0.333356 5.22924V20.7501C0.331503 23.737 1.0433 26.6812 2.40947 29.3375C3.77564 31.9937 5.75665 34.2851 8.18752 36.0209L15.7917 41.4376C16.1445 41.6888 16.5669 41.8238 17 41.8238C17.4332 41.8238 17.8555 41.6888 18.2084 41.4376L25.8125 36.0209C28.2434 34.2851 30.2244 31.9937 31.5906 29.3375C32.9567 26.6812 33.6685 23.737 33.6667 20.7501V5.22924C33.6678 4.918 33.5991 4.61048 33.4657 4.32927C33.3323 4.04807 33.1376 3.80032 32.8959 3.60424ZM29.5 20.7501C29.5016 23.0725 28.9485 25.3617 27.8868 27.4272C26.8251 29.4927 25.2854 31.2748 23.3959 32.6251L17 37.1876L10.6042 32.6251C8.71468 31.2748 7.17499 29.4927 6.11325 27.4272C5.05151 25.3617 4.49842 23.0725 4.50002 20.7501V7.62507C8.86758 7.99889 13.2418 6.98554 17 4.72924C20.7583 6.98554 25.1325 7.99889 29.5 7.62507V20.7501ZM20.2084 15.9792L14.6042 21.6042L12.75 19.7292C12.3577 19.3369 11.8257 19.1165 11.2709 19.1165C10.7161 19.1165 10.184 19.3369 9.79169 19.7292C9.39939 20.1215 9.179 20.6536 9.179 21.2084C9.179 21.7632 9.39939 22.2953 9.79169 22.6876L13.125 26.0209C13.3187 26.2162 13.5491 26.3712 13.803 26.4769C14.0569 26.5827 14.3292 26.6371 14.6042 26.6371C14.8792 26.6371 15.1515 26.5827 15.4054 26.4769C15.6593 26.3712 15.8897 26.2162 16.0834 26.0209L23.25 18.9167C23.6423 18.5244 23.8627 17.9924 23.8627 17.4376C23.8627 16.8828 23.6423 16.3507 23.25 15.9584C22.8577 15.5661 22.3257 15.3457 21.7709 15.3457C21.2161 15.3457 20.684 15.5661 20.2917 15.9584L20.2084 15.9792Z" fill="url(#paint0_linear)"/>
<defs>
<linearGradient id="paint0_linear" x1="17" y1="0.170166" x2="17" y2="41.8238" gradientUnits="userSpaceOnUse">
<stop stop-color="#7A6FFF"/>
<stop offset="1" stop-color="#549CFF"/>
</linearGradient>
</defs>
</svg>
