<svg width="50" height="50" viewBox="0 0 50 50" fill="none" xmlns="http://www.w3.org/2000/svg">
<path d="M18.7501 25.0002L22.9168 29.1668L31.2501 20.8335M16.323 9.7856C17.8174 9.66632 19.2361 9.07872 20.3772 8.10643C21.6666 7.00699 23.3056 6.40308 25.0001 6.40308C26.6946 6.40308 28.3336 7.00699 29.623 8.10643C30.7641 9.07872 32.1828 9.66632 33.6772 9.7856C35.3663 9.91997 36.9521 10.6519 38.1503 11.85C39.3484 13.0481 40.0803 14.634 40.2147 16.3231C40.334 17.8175 40.9216 19.2362 41.8939 20.3773C42.9933 21.6667 43.5972 23.3057 43.5972 25.0002C43.5972 26.6947 42.9933 28.3337 41.8939 29.6231C40.9216 30.7642 40.334 32.1829 40.2147 33.6773C40.0803 35.3663 39.3484 36.9522 38.1503 38.1503C36.9521 39.3485 35.3663 40.0804 33.6772 40.2148C32.1828 40.334 30.7641 40.9216 29.623 41.8939C28.3336 42.9934 26.6946 43.5973 25.0001 43.5973C23.3056 43.5973 21.6666 42.9934 20.3772 41.8939C19.2361 40.9216 17.8174 40.334 16.323 40.2148C14.634 40.0804 13.0481 39.3485 11.8499 38.1503C10.6518 36.9522 9.9199 35.3663 9.78552 33.6773C9.66625 32.1829 9.07865 30.7642 8.10635 29.6231C7.00691 28.3337 6.403 26.6947 6.403 25.0002C6.403 23.3057 7.00691 21.6667 8.10635 20.3773C9.07865 19.2362 9.66625 17.8175 9.78552 16.3231C9.9199 14.634 10.6518 13.0481 11.8499 11.85C13.0481 10.6519 14.634 9.91997 16.323 9.7856Z" stroke="url(#paint0_linear)" stroke-width="4" stroke-linecap="round" stroke-linejoin="round"/>
<defs>
<linearGradient id="paint0_linear" x1="25.0001" y1="6.40308" x2="25.0001" y2="43.5973" gradientUnits="userSpaceOnUse">
<stop stop-color="#7A6FFF"/>
<stop offset="1" stop-color="#549CFF"/>
</linearGradient>
</defs>
</svg>
