<svg width="21" height="19" viewBox="0 0 21 19" fill="none" xmlns="http://www.w3.org/2000/svg">
<path d="M19 2.20834C17.8958 1.10127 16.4321 0.425572 14.8732 0.303312C13.3144 0.181051 11.7633 0.620286 10.5 1.54168C9.1746 0.555882 7.52495 0.108875 5.88321 0.290673C4.24147 0.472471 2.72959 1.26957 1.65202 2.52145C0.574448 3.77333 0.0112347 5.38701 0.075796 7.03752C0.140357 8.68804 0.827897 10.2528 1.99996 11.4167L8.46871 17.8958C9.0104 18.4289 9.73995 18.7277 10.5 18.7277C11.26 18.7277 11.9895 18.4289 12.5312 17.8958L19 11.4167C20.2162 10.193 20.8988 8.53779 20.8988 6.81251C20.8988 5.08722 20.2162 3.43202 19 2.20834ZM17.5312 9.97917L11.0625 16.4479C10.9889 16.5223 10.9012 16.5813 10.8047 16.6215C10.7081 16.6618 10.6046 16.6825 10.5 16.6825C10.3954 16.6825 10.2918 16.6618 10.1952 16.6215C10.0987 16.5813 10.0111 16.5223 9.93746 16.4479L3.46871 9.94792C2.65179 9.11287 2.19435 7.99112 2.19435 6.82293C2.19435 5.65473 2.65179 4.53298 3.46871 3.69793C4.30116 2.87604 5.42389 2.41519 6.59371 2.41519C7.76353 2.41519 8.88626 2.87604 9.71871 3.69793C9.81555 3.79556 9.93076 3.87305 10.0577 3.92594C10.1846 3.97882 10.3208 4.00605 10.4583 4.00605C10.5958 4.00605 10.732 3.97882 10.8589 3.92594C10.9858 3.87305 11.101 3.79556 11.1979 3.69793C12.0303 2.87604 13.1531 2.41519 14.3229 2.41519C15.4927 2.41519 16.6154 2.87604 17.4479 3.69793C18.276 4.52204 18.7485 5.63771 18.7641 6.80593C18.7796 7.97416 18.3371 9.10202 17.5312 9.94792V9.97917Z" fill="#7A6FFF"/>
<path d="M17.5312 9.97917L11.0625 16.4479C10.9889 16.5223 10.9012 16.5813 10.8047 16.6215C10.7081 16.6618 10.6046 16.6825 10.5 16.6825C10.3954 16.6825 10.2918 16.6618 10.1952 16.6215C10.0987 16.5813 10.0111 16.5223 9.93746 16.4479L3.46871 9.94792C2.65179 9.11287 2.19435 7.99112 2.19435 6.82293C2.19435 5.65473 2.65179 4.53298 3.46871 3.69793C4.30116 2.87604 5.42389 2.41519 6.59371 2.41519C7.76353 2.41519 8.88626 2.87604 9.71871 3.69793C9.81555 3.79556 9.93076 3.87305 10.0577 3.92594C10.1846 3.97882 10.3208 4.00605 10.4583 4.00605C10.5958 4.00605 10.732 3.97882 10.8589 3.92594C10.9858 3.87305 11.101 3.79556 11.1979 3.69793C12.0303 2.87604 13.1531 2.41519 14.3229 2.41519C15.4927 2.41519 16.6154 2.87604 17.4479 3.69793C18.276 4.52204 18.7485 5.63771 18.7641 6.80593C18.7796 7.97416 18.3371 9.10202 17.5312 9.94792V9.97917Z" fill="#7A6FFF"/>
</svg>
