<svg width="39" height="39" viewBox="0 0 39 39" fill="none" xmlns="http://www.w3.org/2000/svg">
<path d="M31.8988 5.93126C31.71 5.77855 31.4894 5.67008 31.2531 5.61384C31.0169 5.5576 30.7711 5.55501 30.5338 5.60626C28.7973 5.97017 27.0048 5.97481 25.2665 5.61989C23.5283 5.26496 21.881 4.558 20.4263 3.54251C20.1542 3.35381 19.8311 3.25269 19.5 3.25269C19.1689 3.25269 18.8458 3.35381 18.5738 3.54251C17.119 4.558 15.4718 5.26496 13.7335 5.61989C11.9952 5.97481 10.2027 5.97017 8.46626 5.60626C8.22891 5.55501 7.98309 5.5576 7.74687 5.61384C7.51066 5.67008 7.29004 5.77855 7.10126 5.93126C6.91273 6.08421 6.76086 6.27745 6.65681 6.49679C6.55276 6.71613 6.49918 6.956 6.50001 7.19876V19.305C6.49856 21.6349 7.05377 23.9313 8.11938 26.0032C9.18499 28.0751 10.7302 29.8624 12.6263 31.2163L18.5575 35.4413C18.8327 35.6372 19.1622 35.7425 19.5 35.7425C19.8379 35.7425 20.1673 35.6372 20.4425 35.4413L26.3738 31.2163C28.2698 29.8624 29.815 28.0751 30.8806 26.0032C31.9463 23.9313 32.5015 21.6349 32.5 19.305V7.19876C32.5008 6.956 32.4473 6.71613 32.3432 6.49679C32.2392 6.27745 32.0873 6.08421 31.8988 5.93126ZM29.25 19.305C29.2513 21.1165 28.8198 22.9021 27.9917 24.5132C27.1635 26.1243 25.9626 27.5143 24.4888 28.5675L19.5 32.1263L14.5113 28.5675C13.0374 27.5143 11.8365 26.1243 11.0083 24.5132C10.1802 22.9021 9.74876 21.1165 9.75001 19.305V9.06751C13.1567 9.35909 16.5686 8.56868 19.5 6.80876C22.4314 8.56868 25.8433 9.35909 29.25 9.06751V19.305ZM22.0025 15.5838L17.6313 19.9713L16.185 18.5088C15.879 18.2028 15.464 18.0309 15.0313 18.0309C14.5985 18.0309 14.1835 18.2028 13.8775 18.5088C13.5715 18.8148 13.3996 19.2298 13.3996 19.6625C13.3996 20.0953 13.5715 20.5103 13.8775 20.8163L16.4775 23.4163C16.6286 23.5686 16.8083 23.6895 17.0063 23.772C17.2043 23.8545 17.4167 23.8969 17.6313 23.8969C17.8458 23.8969 18.0582 23.8545 18.2562 23.772C18.4542 23.6895 18.6339 23.5686 18.785 23.4163L24.375 17.875C24.681 17.569 24.8529 17.154 24.8529 16.7213C24.8529 16.2885 24.681 15.8735 24.375 15.5675C24.069 15.2615 23.654 15.0896 23.2213 15.0896C22.7885 15.0896 22.3735 15.2615 22.0675 15.5675L22.0025 15.5838Z" fill="url(#paint0_linear)"/>
<defs>
<linearGradient id="paint0_linear" x1="19.5" y1="3.25269" x2="19.5" y2="35.7425" gradientUnits="userSpaceOnUse">
<stop stop-color="#7A6FFF"/>
<stop offset="1" stop-color="#549CFF"/>
</linearGradient>
</defs>
</svg>
