<svg width="19" height="20" viewBox="0 0 19 20" fill="none" xmlns="http://www.w3.org/2000/svg">
<path fill-rule="evenodd" clip-rule="evenodd" d="M9.67444 16.5329H5.5547C4.96017 16.5329 4.5355 16.4041 4.28164 16.1455C4.02684 15.887 3.8999 15.4754 3.8999 14.9107V5.08832C3.8999 4.51245 4.03057 4.09712 4.29097 3.84512C4.55137 3.59312 4.9723 3.46619 5.5547 3.46619H9.9227C10.5667 3.46619 11.1248 3.50445 11.5962 3.58192C12.0684 3.65939 12.4922 3.80779 12.8655 4.02805C13.1838 4.21192 13.4666 4.44525 13.7111 4.72805C14.2 5.2863 14.4682 6.00387 14.4652 6.74592C14.4652 8.05352 13.7914 9.01019 12.4427 9.61592C14.2132 10.1629 15.0999 11.2269 15.0999 12.8089C15.1163 14.2331 14.2693 15.5257 12.957 16.0793C12.5021 16.2568 12.0262 16.375 11.5411 16.4311C11.0082 16.4993 10.3856 16.5338 9.67444 16.5338V16.5329ZM9.4719 10.7303H6.6999V14.5449H9.5643C11.4095 14.5449 12.3316 13.9009 12.3316 12.611C12.3316 11.9511 12.0927 11.4723 11.6148 11.1765C11.137 10.8787 10.423 10.7303 9.4719 10.7303ZM6.6999 5.45419V8.83192H9.13217C9.81257 8.83192 10.338 8.76939 10.7095 8.64525C11.0738 8.52517 11.3779 8.2695 11.5588 7.93125C11.7128 7.68205 11.7894 7.40299 11.7894 7.09405C11.7894 6.43419 11.5467 5.99645 11.0632 5.77899C10.5788 5.56245 9.84057 5.45419 8.84657 5.45419H6.6999Z" fill="black"/>
<mask id="mask0" mask-type="alpha" maskUnits="userSpaceOnUse" x="3" y="3" width="13" height="14">
<path fill-rule="evenodd" clip-rule="evenodd" d="M9.67444 16.5329H5.5547C4.96017 16.5329 4.5355 16.4041 4.28164 16.1455C4.02684 15.887 3.8999 15.4754 3.8999 14.9107V5.08832C3.8999 4.51245 4.03057 4.09712 4.29097 3.84512C4.55137 3.59312 4.9723 3.46619 5.5547 3.46619H9.9227C10.5667 3.46619 11.1248 3.50445 11.5962 3.58192C12.0684 3.65939 12.4922 3.80779 12.8655 4.02805C13.1838 4.21192 13.4666 4.44525 13.7111 4.72805C14.2 5.2863 14.4682 6.00387 14.4652 6.74592C14.4652 8.05352 13.7914 9.01019 12.4427 9.61592C14.2132 10.1629 15.0999 11.2269 15.0999 12.8089C15.1163 14.2331 14.2693 15.5257 12.957 16.0793C12.5021 16.2568 12.0262 16.375 11.5411 16.4311C11.0082 16.4993 10.3856 16.5338 9.67444 16.5338V16.5329ZM9.4719 10.7303H6.6999V14.5449H9.5643C11.4095 14.5449 12.3316 13.9009 12.3316 12.611C12.3316 11.9511 12.0927 11.4723 11.6148 11.1765C11.137 10.8787 10.423 10.7303 9.4719 10.7303ZM6.6999 5.45419V8.83192H9.13217C9.81257 8.83192 10.338 8.76939 10.7095 8.64525C11.0738 8.52517 11.3779 8.2695 11.5588 7.93125C11.7128 7.68205 11.7894 7.40299 11.7894 7.09405C11.7894 6.43419 11.5467 5.99645 11.0632 5.77899C10.5788 5.56245 9.84057 5.45419 8.84657 5.45419H6.6999Z" fill="white"/>
</mask>
<g mask="url(#mask0)">
<rect x="0.166504" y="0.666626" width="18.6667" height="18.6667" fill="#333333"/>
</g>
</svg>
