<svg width="19" height="20" viewBox="0 0 19 20" fill="none" xmlns="http://www.w3.org/2000/svg">
<path fill-rule="evenodd" clip-rule="evenodd" d="M7.16641 5.56668C7.16641 5.95308 7.48001 6.26668 7.86641 6.26668H16.7331C17.1197 6.26668 17.4331 5.95328 17.4331 5.56668C17.4331 5.18008 17.1197 4.86668 16.7331 4.86668H7.86641C7.47981 4.86668 7.16641 5.18008 7.16641 5.56668ZM1.56641 5.56668C1.56641 4.66508 2.29161 3.93335 3.19974 3.93335C4.10134 3.93335 4.83307 4.65855 4.83307 5.56668C4.83307 6.46828 4.10787 7.20002 3.19974 7.20002C2.29814 7.20002 1.56641 6.47482 1.56641 5.56668ZM7.16641 13.9667C7.16641 14.3531 7.48001 14.6667 7.86641 14.6667H16.7331C17.1197 14.6667 17.4331 14.3533 17.4331 13.9667C17.4331 13.5801 17.1197 13.2667 16.7331 13.2667H7.86641C7.47981 13.2667 7.16641 13.5801 7.16641 13.9667ZM1.56641 13.9667C1.56641 13.0651 2.29161 12.3333 3.19974 12.3333C4.10134 12.3333 4.83307 13.0585 4.83307 13.9667C4.83307 14.8683 4.10787 15.6 3.19974 15.6C2.29814 15.6 1.56641 14.8748 1.56641 13.9667Z" fill="black"/>
<mask id="mask0" mask-type="alpha" maskUnits="userSpaceOnUse" x="1" y="3" width="17" height="13">
<path fill-rule="evenodd" clip-rule="evenodd" d="M7.16641 5.56668C7.16641 5.95308 7.48001 6.26668 7.86641 6.26668H16.7331C17.1197 6.26668 17.4331 5.95328 17.4331 5.56668C17.4331 5.18008 17.1197 4.86668 16.7331 4.86668H7.86641C7.47981 4.86668 7.16641 5.18008 7.16641 5.56668ZM1.56641 5.56668C1.56641 4.66508 2.29161 3.93335 3.19974 3.93335C4.10134 3.93335 4.83307 4.65855 4.83307 5.56668C4.83307 6.46828 4.10787 7.20002 3.19974 7.20002C2.29814 7.20002 1.56641 6.47482 1.56641 5.56668ZM7.16641 13.9667C7.16641 14.3531 7.48001 14.6667 7.86641 14.6667H16.7331C17.1197 14.6667 17.4331 14.3533 17.4331 13.9667C17.4331 13.5801 17.1197 13.2667 16.7331 13.2667H7.86641C7.47981 13.2667 7.16641 13.5801 7.16641 13.9667ZM1.56641 13.9667C1.56641 13.0651 2.29161 12.3333 3.19974 12.3333C4.10134 12.3333 4.83307 13.0585 4.83307 13.9667C4.83307 14.8683 4.10787 15.6 3.19974 15.6C2.29814 15.6 1.56641 14.8748 1.56641 13.9667Z" fill="white"/>
</mask>
<g mask="url(#mask0)">
<rect x="0.166504" y="0.666626" width="18.6667" height="18.6667" fill="#333333"/>
</g>
</svg>
