<svg width="17" height="15" viewBox="0 0 17 15" fill="none" xmlns="http://www.w3.org/2000/svg">
<path fill-rule="evenodd" clip-rule="evenodd" d="M6.6332 3.03331C6.6332 3.41971 6.9468 3.73331 7.3332 3.73331H16.1999C16.5865 3.73331 16.8999 3.41991 16.8999 3.03331C16.8999 2.64671 16.5865 2.33331 16.1999 2.33331H7.3332C6.94661 2.33331 6.6332 2.64671 6.6332 3.03331ZM3.36654 0.466646V5.13331H1.96654V1.11998H1.0332V0.186646H3.36654V0.466646ZM0.420004 14.3332L2.83734 11.2933H2.8252C2.96069 11.0579 2.90777 10.7593 2.69965 10.5848C2.49153 10.4103 2.18821 10.4103 1.98009 10.5848C1.77197 10.7593 1.71905 11.0579 1.85454 11.2933H0.381737C0.347289 10.605 0.694903 9.9537 1.28592 9.59921C1.87694 9.24472 2.6152 9.24472 3.20622 9.59921C3.79724 9.9537 4.14485 10.605 4.1104 11.2933H4.10947C4.06467 11.6713 3.96014 11.9784 3.79867 12.2154C3.63534 12.4525 3.248 12.8613 2.6376 13.44H4.1132V14.3733H0.37987L0.420004 14.3332ZM6.6332 11.4333C6.6332 11.0467 6.94661 10.7333 7.3332 10.7333H16.1999C16.5865 10.7333 16.8999 11.0467 16.8999 11.4333C16.8999 11.8199 16.5865 12.1333 16.1999 12.1333H7.3332C6.94661 12.1333 6.6332 11.8199 6.6332 11.4333Z" fill="black"/>
<mask id="mask0" mask-type="alpha" maskUnits="userSpaceOnUse" x="0" y="0" width="17" height="15">
<path fill-rule="evenodd" clip-rule="evenodd" d="M6.6332 3.03331C6.6332 3.41971 6.9468 3.73331 7.3332 3.73331H16.1999C16.5865 3.73331 16.8999 3.41991 16.8999 3.03331C16.8999 2.64671 16.5865 2.33331 16.1999 2.33331H7.3332C6.94661 2.33331 6.6332 2.64671 6.6332 3.03331ZM3.36654 0.466646V5.13331H1.96654V1.11998H1.0332V0.186646H3.36654V0.466646ZM0.420004 14.3332L2.83734 11.2933H2.8252C2.96069 11.0579 2.90777 10.7593 2.69965 10.5848C2.49153 10.4103 2.18821 10.4103 1.98009 10.5848C1.77197 10.7593 1.71905 11.0579 1.85454 11.2933H0.381737C0.347289 10.605 0.694903 9.9537 1.28592 9.59921C1.87694 9.24472 2.6152 9.24472 3.20622 9.59921C3.79724 9.9537 4.14485 10.605 4.1104 11.2933H4.10947C4.06467 11.6713 3.96014 11.9784 3.79867 12.2154C3.63534 12.4525 3.248 12.8613 2.6376 13.44H4.1132V14.3733H0.37987L0.420004 14.3332ZM6.6332 11.4333C6.6332 11.0467 6.94661 10.7333 7.3332 10.7333H16.1999C16.5865 10.7333 16.8999 11.0467 16.8999 11.4333C16.8999 11.8199 16.5865 12.1333 16.1999 12.1333H7.3332C6.94661 12.1333 6.6332 11.8199 6.6332 11.4333Z" fill="white"/>
</mask>
<g mask="url(#mask0)">
<rect x="-0.833496" y="-2.33337" width="18.6667" height="18.6667" fill="#333333"/>
</g>
</svg>
