<svg width="19" height="20" viewBox="0 0 19 20" fill="none" xmlns="http://www.w3.org/2000/svg">
<path fill-rule="evenodd" clip-rule="evenodd" d="M9.11366 14.3241L9.13326 14.3279C9.09966 14.6405 9.22193 14.9392 9.50006 15.2257C9.57659 15.3032 9.66153 15.3657 9.75579 15.4133H11.1315C11.4408 15.4133 11.6915 15.6641 11.6915 15.9733C11.6915 16.2826 11.4408 16.5333 11.1315 16.5333H5.11713C4.80785 16.5333 4.55713 16.2826 4.55713 15.9733C4.55713 15.6641 4.80785 15.4133 5.11713 15.4133H6.19046C6.63286 15.348 6.94553 15.2435 7.12846 15.1016C7.275 14.9877 7.40006 14.8029 7.50553 14.5444L9.76046 5.63107C9.78779 5.3492 9.6922 5.06924 9.49819 4.86294C9.38487 4.73906 9.24336 4.6443 9.08566 4.58667H7.7734C7.46412 4.58667 7.2134 4.33595 7.2134 4.02667C7.2134 3.7174 7.46412 3.46667 7.7734 3.46667H13.7869C14.0961 3.46667 14.3469 3.7174 14.3469 4.02667C14.3469 4.33595 14.0961 4.58667 13.7869 4.58667H12.6715C12.3206 4.63894 12.0649 4.73134 11.9034 4.86294C11.7027 5.02627 11.5086 5.27267 11.3219 5.60027L9.11366 14.3241Z" fill="#333333"/>
<mask id="mask0" mask-type="alpha" maskUnits="userSpaceOnUse" x="4" y="3" width="11" height="14">
<path fill-rule="evenodd" clip-rule="evenodd" d="M9.11366 14.3241L9.13326 14.3279C9.09966 14.6405 9.22193 14.9392 9.50006 15.2257C9.57659 15.3032 9.66153 15.3657 9.75579 15.4133H11.1315C11.4408 15.4133 11.6915 15.6641 11.6915 15.9733C11.6915 16.2826 11.4408 16.5333 11.1315 16.5333H5.11713C4.80785 16.5333 4.55713 16.2826 4.55713 15.9733C4.55713 15.6641 4.80785 15.4133 5.11713 15.4133H6.19046C6.63286 15.348 6.94553 15.2435 7.12846 15.1016C7.275 14.9877 7.40006 14.8029 7.50553 14.5444L9.76046 5.63107C9.78779 5.3492 9.6922 5.06924 9.49819 4.86294C9.38487 4.73906 9.24336 4.6443 9.08566 4.58667H7.7734C7.46412 4.58667 7.2134 4.33595 7.2134 4.02667C7.2134 3.7174 7.46412 3.46667 7.7734 3.46667H13.7869C14.0961 3.46667 14.3469 3.7174 14.3469 4.02667C14.3469 4.33595 14.0961 4.58667 13.7869 4.58667H12.6715C12.3206 4.63894 12.0649 4.73134 11.9034 4.86294C11.7027 5.02627 11.5086 5.27267 11.3219 5.60027L9.11366 14.3241Z" fill="white"/>
</mask>
<g mask="url(#mask0)">
<rect x="0.166504" y="0.666626" width="18.6667" height="18.6667" fill="#333333"/>
</g>
</svg>
