<svg width="19" height="20" viewBox="0 0 19 20" fill="none" xmlns="http://www.w3.org/2000/svg">
<path fill-rule="evenodd" clip-rule="evenodd" d="M16.0144 3.46667C16.5744 3.46667 17.0317 3.90534 17.0317 4.44667V15.4973C17.0317 16.048 16.5744 16.4867 16.0144 16.4867H2.58374C2.02374 16.4867 1.56641 16.048 1.56641 15.4973V4.44667C1.56641 3.90534 2.02374 3.46667 2.59307 3.46667H16.0144ZM6.42907 10.476C6.67174 10.2613 7.02641 10.28 7.25041 10.504L10.3864 13.4347L12.4677 11.512C12.6968 11.2998 13.0507 11.2998 13.2797 11.512L15.6317 14.284V4.83867H2.96641V14.284L6.42907 10.476ZM11.1436 6.82458C10.8161 7.39101 10.8156 8.08915 11.1424 8.65601C11.6476 9.5323 12.7674 9.83316 13.6437 9.32801C14.52 8.82285 14.8209 7.70297 14.3157 6.82667C13.989 6.25981 13.3846 5.91035 12.7303 5.90991C12.076 5.90948 11.4711 6.25815 11.1436 6.82458Z" fill="black"/>
<mask id="mask0" mask-type="alpha" maskUnits="userSpaceOnUse" x="1" y="3" width="17" height="14">
<path fill-rule="evenodd" clip-rule="evenodd" d="M16.0144 3.46667C16.5744 3.46667 17.0317 3.90534 17.0317 4.44667V15.4973C17.0317 16.048 16.5744 16.4867 16.0144 16.4867H2.58374C2.02374 16.4867 1.56641 16.048 1.56641 15.4973V4.44667C1.56641 3.90534 2.02374 3.46667 2.59307 3.46667H16.0144ZM6.42907 10.476C6.67174 10.2613 7.02641 10.28 7.25041 10.504L10.3864 13.4347L12.4677 11.512C12.6968 11.2998 13.0507 11.2998 13.2797 11.512L15.6317 14.284V4.83867H2.96641V14.284L6.42907 10.476ZM11.1436 6.82458C10.8161 7.39101 10.8156 8.08915 11.1424 8.65601C11.6476 9.5323 12.7674 9.83316 13.6437 9.32801C14.52 8.82285 14.8209 7.70297 14.3157 6.82667C13.989 6.25981 13.3846 5.91035 12.7303 5.90991C12.076 5.90948 11.4711 6.25815 11.1436 6.82458Z" fill="white"/>
</mask>
<g mask="url(#mask0)">
<rect x="0.166504" y="0.666626" width="18.6667" height="18.6667" fill="#333333"/>
</g>
</svg>
