<svg width="15" height="12" viewBox="0 0 15 12" fill="none" xmlns="http://www.w3.org/2000/svg">
<path fill-rule="evenodd" clip-rule="evenodd" d="M0.575927 6.49826C0.613314 3.33622 3.0733 0.733242 6.22819 0.517456L6.26366 1.14279C3.79406 1.83159 2.77299 3.92226 2.64793 6.10346H6.17593C6.69113 6.10346 6.64259 6.50666 6.64259 7.02372V11.234C6.64259 11.7511 6.22446 11.7035 5.70926 11.7035H1.04259C0.527394 11.7035 0.575927 11.2844 0.575927 10.7673V7.02372V6.49826ZM8.04259 6.49826C8.07998 3.33622 10.54 0.733242 13.6949 0.517456L13.7303 1.14279C11.2607 1.83252 10.2397 3.92319 10.1155 6.10346H13.6426C14.1578 6.10346 14.1093 6.50666 14.1093 7.02372V11.234C14.1093 11.7511 13.6911 11.7035 13.1759 11.7035H8.50926C7.99406 11.7035 8.04259 11.2844 8.04259 10.7673V7.02372V6.49826Z" fill="black"/>
<mask id="mask0" mask-type="alpha" maskUnits="userSpaceOnUse" x="0" y="0" width="15" height="12">
<path fill-rule="evenodd" clip-rule="evenodd" d="M0.575927 6.49826C0.613314 3.33622 3.0733 0.733242 6.22819 0.517456L6.26366 1.14279C3.79406 1.83159 2.77299 3.92226 2.64793 6.10346H6.17593C6.69113 6.10346 6.64259 6.50666 6.64259 7.02372V11.234C6.64259 11.7511 6.22446 11.7035 5.70926 11.7035H1.04259C0.527394 11.7035 0.575927 11.2844 0.575927 10.7673V7.02372V6.49826ZM8.04259 6.49826C8.07998 3.33622 10.54 0.733242 13.6949 0.517456L13.7303 1.14279C11.2607 1.83252 10.2397 3.92319 10.1155 6.10346H13.6426C14.1578 6.10346 14.1093 6.50666 14.1093 7.02372V11.234C14.1093 11.7511 13.6911 11.7035 13.1759 11.7035H8.50926C7.99406 11.7035 8.04259 11.2844 8.04259 10.7673V7.02372V6.49826Z" fill="white"/>
</mask>
<g mask="url(#mask0)">
<rect x="-1.8335" y="-3.33337" width="18.6667" height="18.6667" fill="#333333"/>
</g>
</svg>
