<svg width="19" height="20" viewBox="0 0 19 20" fill="none" xmlns="http://www.w3.org/2000/svg">
<path fill-rule="evenodd" clip-rule="evenodd" d="M14.1273 9.40913L12.0842 11.1237C11.7881 11.3724 11.7497 11.8141 11.9984 12.1102C12.2471 12.4063 12.6888 12.4448 12.9849 12.1961L16.5204 9.22807C16.606 9.15665 16.6732 9.06575 16.7164 8.963C16.8833 8.66923 16.8165 8.29818 16.5577 8.081L13.0185 5.11113C12.8268 4.95041 12.5639 4.90419 12.3288 4.98987C12.0937 5.07555 11.9223 5.28013 11.8789 5.52654C11.8356 5.77294 11.927 6.02374 12.1188 6.18447L14.2944 8.00913H5.97184C5.90224 8.00913 5.83304 8.01952 5.7665 8.03993C4.26348 8.04058 2.90741 8.94249 2.32571 10.3284C1.744 11.7143 2.05012 13.3139 3.10242 14.3871C4.15472 15.4602 5.74797 15.7977 7.14504 15.2434L6.82397 13.8537C5.95914 14.2926 4.91296 14.1508 4.19615 13.4975C3.47934 12.8442 3.24139 11.8157 3.59846 10.9139C3.95553 10.0122 4.83316 9.42538 5.8029 9.43993L5.79544 9.41007H14.1273V9.40913Z" fill="black"/>
<mask id="mask0" mask-type="alpha" maskUnits="userSpaceOnUse" x="2" y="4" width="15" height="12">
<path fill-rule="evenodd" clip-rule="evenodd" d="M14.1273 9.40913L12.0842 11.1237C11.7881 11.3724 11.7497 11.8141 11.9984 12.1102C12.2471 12.4063 12.6888 12.4448 12.9849 12.1961L16.5204 9.22807C16.606 9.15665 16.6732 9.06575 16.7164 8.963C16.8833 8.66923 16.8165 8.29818 16.5577 8.081L13.0185 5.11113C12.8268 4.95041 12.5639 4.90419 12.3288 4.98987C12.0937 5.07555 11.9223 5.28013 11.8789 5.52654C11.8356 5.77294 11.927 6.02374 12.1188 6.18447L14.2944 8.00913H5.97184C5.90224 8.00913 5.83304 8.01952 5.7665 8.03993C4.26348 8.04058 2.90741 8.94249 2.32571 10.3284C1.744 11.7143 2.05012 13.3139 3.10242 14.3871C4.15472 15.4602 5.74797 15.7977 7.14504 15.2434L6.82397 13.8537C5.95914 14.2926 4.91296 14.1508 4.19615 13.4975C3.47934 12.8442 3.24139 11.8157 3.59846 10.9139C3.95553 10.0122 4.83316 9.42538 5.8029 9.43993L5.79544 9.41007H14.1273V9.40913Z" fill="white"/>
</mask>
<g mask="url(#mask0)">
<rect x="0.166504" y="0.666626" width="18.6667" height="18.6667" fill="#333333"/>
</g>
</svg>
