<svg width="19" height="20" viewBox="0 0 19 20" fill="none" xmlns="http://www.w3.org/2000/svg">
<path fill-rule="evenodd" clip-rule="evenodd" d="M10.5051 14.6666L11.4301 13.345C11.5734 13.1401 11.8153 13.0272 12.0644 13.049C12.3135 13.0707 12.5322 13.2237 12.6379 13.4503C12.7437 13.6769 12.7205 13.9428 12.5771 14.1477L11.5057 15.6783C11.4518 15.7554 11.3829 15.8208 11.3031 15.8706C9.63065 17.6199 6.93171 17.8864 4.94937 16.4981C2.96703 15.1098 2.29487 12.4823 3.367 10.3126C3.38567 10.2239 3.423 10.1362 3.479 10.0569L4.54953 8.52713C4.68919 8.31311 4.93439 8.19221 5.1892 8.21172C5.44401 8.23123 5.66794 8.38805 5.77339 8.62084C5.87884 8.85363 5.84905 9.12538 5.69567 9.3298L4.77073 10.6533L4.77633 10.6561C3.80981 12.2334 4.23769 14.2905 5.75302 15.3517C7.26835 16.4128 9.34777 16.1114 10.4995 14.6638L10.5051 14.6675V14.6666ZM15.6329 9.68726C15.6131 9.77918 15.575 9.86616 15.5209 9.943L14.4503 11.4727C14.3107 11.6867 14.0655 11.8077 13.8107 11.7881C13.5559 11.7686 13.3319 11.6118 13.2265 11.379C13.121 11.1462 13.1508 10.8745 13.3042 10.6701L14.1069 9.52206C15.1991 7.93866 14.8089 5.77054 13.233 4.66739C11.6572 3.56424 9.48643 3.93957 8.37247 5.5078L7.5698 6.65486C7.34815 6.97162 6.91169 7.04871 6.59493 6.82706C6.27818 6.60541 6.20108 6.16895 6.42273 5.8522L7.4942 4.32153C7.54807 4.24445 7.61696 4.17906 7.69673 4.12926C9.36922 2.38001 12.0682 2.11347 14.0505 3.50178C16.0328 4.8901 16.705 7.51755 15.6329 9.68726ZM11.3741 7.32406C11.5262 7.43058 11.6298 7.59321 11.662 7.77614C11.6943 7.95907 11.6524 8.14731 11.5458 8.2994L8.60113 12.5041C8.45775 12.709 8.21595 12.8218 7.9668 12.8001C7.71766 12.7784 7.49903 12.6254 7.39327 12.3988C7.28751 12.1721 7.31068 11.9063 7.45407 11.7014L10.3987 7.4958C10.5053 7.34363 10.6679 7.24003 10.8508 7.20782C11.0337 7.17561 11.222 7.21743 11.3741 7.32406Z" fill="black"/>
<mask id="mask0" mask-type="alpha" maskUnits="userSpaceOnUse" x="2" y="2" width="15" height="16">
<path fill-rule="evenodd" clip-rule="evenodd" d="M10.5051 14.6666L11.4301 13.345C11.5734 13.1401 11.8153 13.0272 12.0644 13.049C12.3135 13.0707 12.5322 13.2237 12.6379 13.4503C12.7437 13.6769 12.7205 13.9428 12.5771 14.1477L11.5057 15.6783C11.4518 15.7554 11.3829 15.8208 11.3031 15.8706C9.63065 17.6199 6.93171 17.8864 4.94937 16.4981C2.96703 15.1098 2.29487 12.4823 3.367 10.3126C3.38567 10.2239 3.423 10.1362 3.479 10.0569L4.54953 8.52713C4.68919 8.31311 4.93439 8.19221 5.1892 8.21172C5.44401 8.23123 5.66794 8.38805 5.77339 8.62084C5.87884 8.85363 5.84905 9.12538 5.69567 9.3298L4.77073 10.6533L4.77633 10.6561C3.80981 12.2334 4.23769 14.2905 5.75302 15.3517C7.26835 16.4128 9.34777 16.1114 10.4995 14.6638L10.5051 14.6675V14.6666ZM15.6329 9.68726C15.6131 9.77918 15.575 9.86616 15.5209 9.943L14.4503 11.4727C14.3107 11.6867 14.0655 11.8077 13.8107 11.7881C13.5559 11.7686 13.3319 11.6118 13.2265 11.379C13.121 11.1462 13.1508 10.8745 13.3042 10.6701L14.1069 9.52206C15.1991 7.93866 14.8089 5.77054 13.233 4.66739C11.6572 3.56424 9.48643 3.93957 8.37247 5.5078L7.5698 6.65486C7.34815 6.97162 6.91169 7.04871 6.59493 6.82706C6.27818 6.60541 6.20108 6.16895 6.42273 5.8522L7.4942 4.32153C7.54807 4.24445 7.61696 4.17906 7.69673 4.12926C9.36922 2.38001 12.0682 2.11347 14.0505 3.50178C16.0328 4.8901 16.705 7.51755 15.6329 9.68726ZM11.3741 7.32406C11.5262 7.43058 11.6298 7.59321 11.662 7.77614C11.6943 7.95907 11.6524 8.14731 11.5458 8.2994L8.60113 12.5041C8.45775 12.709 8.21595 12.8218 7.9668 12.8001C7.71766 12.7784 7.49903 12.6254 7.39327 12.3988C7.28751 12.1721 7.31068 11.9063 7.45407 11.7014L10.3987 7.4958C10.5053 7.34363 10.6679 7.24003 10.8508 7.20782C11.0337 7.17561 11.222 7.21743 11.3741 7.32406Z" fill="white"/>
</mask>
<g mask="url(#mask0)">
<rect x="0.166504" y="0.666626" width="18.6667" height="18.6667" fill="#333333"/>
</g>
</svg>
