<svg width="19" height="20" viewBox="0 0 19 20" fill="none" xmlns="http://www.w3.org/2000/svg">
<path fill-rule="evenodd" clip-rule="evenodd" d="M2.68662 5.6319V8.4319H6.41995V5.6319H2.68662ZM2.68662 9.36523V12.1652H6.41995V9.36523H2.68662ZM2.68662 13.0986V15.8986H6.41995V13.0986H2.68662ZM7.35329 15.8986H11.0866V13.0986H7.35329V15.8986ZM12.02 15.8986H15.7533V13.0986H12.02V15.8986ZM15.7533 12.1652V9.36523H12.02V12.1652H15.7533ZM15.7533 8.4319V5.6319H12.02V8.4319H15.7533ZM17.1533 15.8986C17.1533 16.6718 16.5265 17.2986 15.7533 17.2986H2.68662C1.91342 17.2986 1.28662 16.6718 1.28662 15.8986V3.76523C1.49382 2.95977 2.28342 2.36523 3.15329 2.36523H15.2866C16.1565 2.36523 16.9461 2.95977 17.1533 3.76523V15.8986ZM11.0866 12.1652V9.36523H7.35329V12.1652H11.0866ZM11.0866 8.4319V5.6319H7.35329V8.4319H11.0866Z" fill="black"/>
<mask id="mask0" mask-type="alpha" maskUnits="userSpaceOnUse" x="1" y="2" width="17" height="16">
<path fill-rule="evenodd" clip-rule="evenodd" d="M2.68662 5.6319V8.4319H6.41995V5.6319H2.68662ZM2.68662 9.36523V12.1652H6.41995V9.36523H2.68662ZM2.68662 13.0986V15.8986H6.41995V13.0986H2.68662ZM7.35329 15.8986H11.0866V13.0986H7.35329V15.8986ZM12.02 15.8986H15.7533V13.0986H12.02V15.8986ZM15.7533 12.1652V9.36523H12.02V12.1652H15.7533ZM15.7533 8.4319V5.6319H12.02V8.4319H15.7533ZM17.1533 15.8986C17.1533 16.6718 16.5265 17.2986 15.7533 17.2986H2.68662C1.91342 17.2986 1.28662 16.6718 1.28662 15.8986V3.76523C1.49382 2.95977 2.28342 2.36523 3.15329 2.36523H15.2866C16.1565 2.36523 16.9461 2.95977 17.1533 3.76523V15.8986ZM11.0866 12.1652V9.36523H7.35329V12.1652H11.0866ZM11.0866 8.4319V5.6319H7.35329V8.4319H11.0866Z" fill="white"/>
</mask>
<g mask="url(#mask0)">
<rect x="0.166504" y="0.666626" width="18.6667" height="18.6667" fill="#333333"/>
</g>
</svg>
