<svg width="19" height="20" viewBox="0 0 19 20" fill="none" xmlns="http://www.w3.org/2000/svg">
<path fill-rule="evenodd" clip-rule="evenodd" d="M4.87236 9.40914L6.91543 11.1237C7.21157 11.3724 7.25001 11.8141 7.0013 12.1102C6.75259 12.4063 6.3109 12.4448 6.01476 12.1961L2.4793 9.22807C2.39371 9.15666 2.3265 9.06576 2.2833 8.96301C2.1164 8.66924 2.18315 8.29819 2.44196 8.08101L5.98116 5.11114C6.27756 4.86268 6.71924 4.90155 6.9677 5.19794C7.21615 5.49433 7.17729 5.93602 6.8809 6.18447L4.7053 8.00821H13.0278C13.0975 8.00851 13.1667 8.01921 13.2332 8.03994C14.7362 8.04058 16.0923 8.94249 16.674 10.3284C17.2557 11.7143 16.9496 13.3139 15.8973 14.3871C14.8449 15.4603 13.2517 15.7978 11.8546 15.2434L12.1757 13.8537C13.0405 14.2917 14.086 14.1494 14.8023 13.4961C15.5185 12.8429 15.7563 11.8149 15.3996 10.9135C15.0429 10.0122 14.1661 9.42521 13.1968 9.43901L13.2042 9.40914H4.87236Z" fill="black"/>
<mask id="mask0" mask-type="alpha" maskUnits="userSpaceOnUse" x="2" y="4" width="15" height="12">
<path fill-rule="evenodd" clip-rule="evenodd" d="M4.87236 9.40914L6.91543 11.1237C7.21157 11.3724 7.25001 11.8141 7.0013 12.1102C6.75259 12.4063 6.3109 12.4448 6.01476 12.1961L2.4793 9.22807C2.39371 9.15666 2.3265 9.06576 2.2833 8.96301C2.1164 8.66924 2.18315 8.29819 2.44196 8.08101L5.98116 5.11114C6.27756 4.86268 6.71924 4.90155 6.9677 5.19794C7.21615 5.49433 7.17729 5.93602 6.8809 6.18447L4.7053 8.00821H13.0278C13.0975 8.00851 13.1667 8.01921 13.2332 8.03994C14.7362 8.04058 16.0923 8.94249 16.674 10.3284C17.2557 11.7143 16.9496 13.3139 15.8973 14.3871C14.8449 15.4603 13.2517 15.7978 11.8546 15.2434L12.1757 13.8537C13.0405 14.2917 14.086 14.1494 14.8023 13.4961C15.5185 12.8429 15.7563 11.8149 15.3996 10.9135C15.0429 10.0122 14.1661 9.42521 13.1968 9.43901L13.2042 9.40914H4.87236Z" fill="white"/>
</mask>
<g mask="url(#mask0)">
<rect x="0.166504" y="0.666626" width="18.6667" height="18.6667" fill="#333333"/>
</g>
</svg>
