<svg width="19" height="14" viewBox="0 0 19 14" fill="none" xmlns="http://www.w3.org/2000/svg">
<path fill-rule="evenodd" clip-rule="evenodd" d="M17.6798 0.494499C17.9132 0.493894 18.0312 0.493588 18.0909 0.552448C18.1519 0.612655 18.1519 0.734767 18.1518 0.981786L18.1518 1.00796V12.992L18.1518 13.0186C18.1519 13.2714 18.1519 13.3957 18.0898 13.4567C18.0297 13.5157 17.9114 13.5154 17.6786 13.5148L17.6012 13.5146H1.3705L1.29309 13.5148C1.06028 13.5154 0.941962 13.5157 0.881847 13.4567C0.819722 13.3957 0.819757 13.2714 0.819829 13.0186L0.819834 12.992V1.00796L0.819829 0.982191C0.819759 0.736271 0.819725 0.614046 0.880818 0.553455C0.941184 0.493585 1.06123 0.49389 1.2999 0.494499L1.37983 0.494631H17.6012L17.6798 0.494499ZM14.8852 11.6666V2.3333H4.0865V11.6666H14.8852ZM2.03317 2.79996V1.86663H2.9665V2.79996H2.03317ZM2.03317 3.7333V4.66663H2.9665V3.7333H2.03317ZM2.03317 6.5333V5.59996H2.9665V6.5333H2.03317ZM2.03317 7.46663V8.39996H2.9665V7.46663H2.03317ZM2.03317 10.2666V9.3333H2.9665V10.2666H2.03317ZM2.03317 11.2V12.1333H2.9665V11.2H2.03317ZM16.9665 2.79996H16.0332V1.86663H16.9665V2.79996ZM16.0332 3.7333V4.66663H16.9665V3.7333H16.0332ZM16.0332 6.5333V5.59996H16.9665V6.5333H16.0332ZM16.0332 7.46663V8.39996H16.9665V7.46663H16.0332ZM16.0332 10.2666V9.3333H16.9665V10.2666H16.0332ZM16.0332 11.2V12.1333H16.9665V11.2H16.0332ZM7.34967 4.04329C7.23595 4.1106 7.16629 4.23302 7.1665 4.36516V9.6357C7.16662 9.76768 7.23641 9.88979 7.35007 9.95687C7.46373 10.024 7.60437 10.026 7.71997 9.96236L12.5108 7.32663C12.6296 7.26088 12.7034 7.13578 12.7034 6.99996C12.7034 6.86415 12.6296 6.73905 12.5108 6.6733L7.71997 4.03756C7.60422 3.9738 7.46339 3.97598 7.34967 4.04329Z" fill="black"/>
<mask id="mask0" mask-type="alpha" maskUnits="userSpaceOnUse" x="0" y="0" width="19" height="14">
<path fill-rule="evenodd" clip-rule="evenodd" d="M17.6798 0.494499C17.9132 0.493894 18.0312 0.493588 18.0909 0.552448C18.1519 0.612655 18.1519 0.734767 18.1518 0.981786L18.1518 1.00796V12.992L18.1518 13.0186C18.1519 13.2714 18.1519 13.3957 18.0898 13.4567C18.0297 13.5157 17.9114 13.5154 17.6786 13.5148L17.6012 13.5146H1.3705L1.29309 13.5148C1.06028 13.5154 0.941962 13.5157 0.881847 13.4567C0.819722 13.3957 0.819757 13.2714 0.819829 13.0186L0.819834 12.992V1.00796L0.819829 0.982191C0.819759 0.736271 0.819725 0.614046 0.880818 0.553455C0.941184 0.493585 1.06123 0.49389 1.2999 0.494499L1.37983 0.494631H17.6012L17.6798 0.494499ZM14.8852 11.6666V2.3333H4.0865V11.6666H14.8852ZM2.03317 2.79996V1.86663H2.9665V2.79996H2.03317ZM2.03317 3.7333V4.66663H2.9665V3.7333H2.03317ZM2.03317 6.5333V5.59996H2.9665V6.5333H2.03317ZM2.03317 7.46663V8.39996H2.9665V7.46663H2.03317ZM2.03317 10.2666V9.3333H2.9665V10.2666H2.03317ZM2.03317 11.2V12.1333H2.9665V11.2H2.03317ZM16.9665 2.79996H16.0332V1.86663H16.9665V2.79996ZM16.0332 3.7333V4.66663H16.9665V3.7333H16.0332ZM16.0332 6.5333V5.59996H16.9665V6.5333H16.0332ZM16.0332 7.46663V8.39996H16.9665V7.46663H16.0332ZM16.0332 10.2666V9.3333H16.9665V10.2666H16.0332ZM16.0332 11.2V12.1333H16.9665V11.2H16.0332ZM7.34967 4.04329C7.23595 4.1106 7.16629 4.23302 7.1665 4.36516V9.6357C7.16662 9.76768 7.23641 9.88979 7.35007 9.95687C7.46373 10.024 7.60437 10.026 7.71997 9.96236L12.5108 7.32663C12.6296 7.26088 12.7034 7.13578 12.7034 6.99996C12.7034 6.86415 12.6296 6.73905 12.5108 6.6733L7.71997 4.03756C7.60422 3.9738 7.46339 3.97598 7.34967 4.04329Z" fill="white"/>
</mask>
<g mask="url(#mask0)">
<rect x="0.166504" y="-2.33337" width="18.6667" height="18.6667" fill="#333333"/>
</g>
</svg>
