<svg width="19" height="19" viewBox="0 0 19 19" fill="none" xmlns="http://www.w3.org/2000/svg">
<path d="M6.23419 1.38445C13.7977 -1.64217 21.261 6.3877 17.1971 13.7031C15.3508 17.0255 10.7645 19.7013 5.42438 17.1708L1.71263 18.2313C1.13644 18.3958 0.604441 17.8655 0.765878 17.2893C0.987691 16.4992 1.51269 14.6363 1.81938 13.6266C-0.482309 9.51933 1.06994 3.45164 6.23419 1.38489V1.38445ZM5.99794 7.85945C5.99794 8.16133 6.24294 8.40633 6.54482 8.40633H12.4533C12.5983 8.40633 12.7374 8.34871 12.84 8.24615C12.9425 8.14359 13.0001 8.00449 13.0001 7.85945C13.0001 7.71441 12.9425 7.57531 12.84 7.47275C12.7374 7.37019 12.5983 7.31258 12.4533 7.31258H6.54482C6.24294 7.31258 5.99794 7.55758 5.99794 7.85945ZM6.547 10.5829C6.40196 10.5829 6.26286 10.6405 6.1603 10.7431C6.05774 10.8456 6.00013 10.9847 6.00013 11.1298C6.00013 11.2748 6.05774 11.4139 6.1603 11.5165C6.26286 11.619 6.40196 11.6766 6.547 11.6766H10.7033C10.8483 11.6766 10.9874 11.619 11.09 11.5165C11.1925 11.4139 11.2501 11.2748 11.2501 11.1298C11.2501 10.9847 11.1925 10.8456 11.09 10.7431C10.9874 10.6405 10.8483 10.5829 10.7033 10.5829H6.547Z" fill="#549CFF"/>
</svg>
