<svg width="10" height="13" viewBox="0 0 10 13" fill="none" xmlns="http://www.w3.org/2000/svg">
<path fill-rule="evenodd" clip-rule="evenodd" d="M1.53496 1.83515C2.45394 0.916177 3.70034 0.399902 4.99996 0.399902C6.29959 0.399902 7.54599 0.916177 8.46496 1.83515C9.38394 2.75413 9.90021 4.00053 9.90021 5.30015C9.90021 6.59978 9.38394 7.84618 8.46496 8.76515L4.99996 12.2302L1.53496 8.76515C1.0799 8.31014 0.718927 7.76995 0.472647 7.17542C0.226368 6.58089 0.0996094 5.94367 0.0996094 5.30015C0.0996094 4.65663 0.226368 4.01942 0.472647 3.42489C0.718927 2.83036 1.0799 2.29017 1.53496 1.83515ZM4.99996 6.70015C5.37126 6.70015 5.72736 6.55265 5.98991 6.2901C6.25246 6.02755 6.39996 5.67146 6.39996 5.30015C6.39996 4.92885 6.25246 4.57275 5.98991 4.3102C5.72736 4.04765 5.37126 3.90015 4.99996 3.90015C4.62866 3.90015 4.27256 4.04765 4.01001 4.3102C3.74746 4.57275 3.59996 4.92885 3.59996 5.30015C3.59996 5.67146 3.74746 6.02755 4.01001 6.2901C4.27256 6.55265 4.62866 6.70015 4.99996 6.70015Z" fill="#B1B1B1"/>
</svg>
