<svg width="19" height="19" viewBox="0 0 19 19" fill="none" xmlns="http://www.w3.org/2000/svg">
<path d="M11.2298 12.8878C9.79287 13.9094 8.02458 14.3539 6.27537 14.1332C4.52615 13.9125 2.92369 13.0427 1.78556 11.6962C0.647422 10.3497 0.0566867 8.6247 0.130425 6.86316C0.204163 5.10162 0.936993 3.43207 2.18368 2.18539C3.43036 0.938702 5.09991 0.205872 6.86145 0.132134C8.62299 0.0583957 10.3479 0.649131 11.6945 1.78726C13.041 2.9254 13.9108 4.52786 14.1315 6.27707C14.3522 8.02629 13.9077 9.79458 12.886 11.2315L18.5314 16.8753C18.6465 16.9825 18.7388 17.1119 18.8029 17.2557C18.8669 17.3994 18.9014 17.5546 18.9042 17.7119C18.9069 17.8693 18.878 18.0256 18.819 18.1715C18.7601 18.3174 18.6724 18.45 18.5611 18.5612C18.4498 18.6725 18.3173 18.7603 18.1714 18.8192C18.0254 18.8781 17.8691 18.9071 17.7118 18.9043C17.5544 18.9015 17.3993 18.8671 17.2555 18.803C17.1118 18.739 16.9824 18.6466 16.8751 18.5315L11.2298 12.8878ZM11.8439 7.1565C11.8439 5.9133 11.35 4.72101 10.4709 3.84194C9.59184 2.96286 8.39956 2.469 7.15635 2.469C5.91315 2.469 4.72087 2.96286 3.84179 3.84194C2.96271 4.72101 2.46885 5.9133 2.46885 7.1565C2.46885 8.3997 2.96271 9.59199 3.84179 10.4711C4.72087 11.3501 5.91315 11.844 7.15635 11.844C8.39956 11.844 9.59184 11.3501 10.4709 10.4711C11.35 9.59199 11.8439 8.3997 11.8439 7.1565Z" fill="black" fill-opacity="0.9"/>
</svg>
