<svg width="26" height="24" viewBox="0 0 26 24" fill="none" xmlns="http://www.w3.org/2000/svg">
<path d="M23.2001 3.25021C21.8751 1.92172 20.1186 1.11088 18.248 0.964169C16.3774 0.817457 14.5161 1.34454 13.0001 2.45021C11.4097 1.26725 9.43009 0.730846 7.46 0.949003C5.48991 1.16716 3.67565 2.12368 2.38257 3.62594C1.08948 5.1282 0.413628 7.06461 0.491102 9.04522C0.568575 11.0258 1.39362 12.9035 2.8001 14.3002L10.5626 22.0752C11.2126 22.7149 12.0881 23.0735 13.0001 23.0735C13.9121 23.0735 14.7876 22.7149 15.4376 22.0752L23.2001 14.3002C24.6596 12.8318 25.4788 10.8455 25.4788 8.77521C25.4788 6.70486 24.6596 4.71862 23.2001 3.25021ZM21.4376 12.5752L13.6751 20.3377C13.5868 20.4269 13.4816 20.4977 13.3658 20.546C13.2499 20.5943 13.1256 20.6192 13.0001 20.6192C12.8746 20.6192 12.7503 20.5943 12.6344 20.546C12.5186 20.4977 12.4134 20.4269 12.3251 20.3377L4.5626 12.5377C3.5823 11.5356 3.03336 10.1895 3.03336 8.78771C3.03336 7.38587 3.5823 6.03977 4.5626 5.03771C5.56154 4.05144 6.90882 3.49842 8.3126 3.49842C9.71638 3.49842 11.0637 4.05144 12.0626 5.03771C12.1788 5.15487 12.3171 5.24786 12.4694 5.31132C12.6217 5.37478 12.7851 5.40745 12.9501 5.40745C13.1151 5.40745 13.2785 5.37478 13.4308 5.31132C13.5831 5.24786 13.7214 5.15487 13.8376 5.03771C14.8365 4.05144 16.1838 3.49842 17.5876 3.49842C18.9914 3.49842 20.3387 4.05144 21.3376 5.03771C22.3314 6.02664 22.8983 7.36545 22.917 8.76731C22.9357 10.1692 22.4047 11.5226 21.4376 12.5377V12.5752Z" fill="black"/>
</svg>
